<svg id="accueil" xmlns="http://www.w3.org/2000/svg" width="20" height="20" viewBox="0 0 20 20">
  <path id="icons8-home" d="M13,2a.833.833,0,0,0-.583.238L3.327,9.673,3.3,9.7l-.031.026v0a.833.833,0,0,0,.568,1.442h.833v9.167A1.666,1.666,0,0,0,6.333,22H19.667a1.666,1.666,0,0,0,1.667-1.667V11.167h.833a.834.834,0,0,0,.568-1.444l-.013-.01q-.027-.025-.057-.047L21.333,8.577V5.333A.834.834,0,0,0,20.5,4.5h-.833a.834.834,0,0,0-.833.833v1.2l-5.269-4.31A.833.833,0,0,0,13,2Zm2.5,10.833h3.333V19.5H15.5Z" transform="translate(-3 -2)" fill="#b1b9c7"/>
</svg>
