<svg id="adresse" xmlns="http://www.w3.org/2000/svg" width="14" height="14" viewBox="0 0 14 14">
  <path id="icons8-business_building" data-name="icons8-business building" d="M432.474-76A1.548,1.548,0,0,0,431-74.39v10.775a1.548,1.548,0,0,0,1.474,1.61h1.473v-.807h.014a3.263,3.263,0,0,1,2.12-2.791,3.424,3.424,0,0,1-.661-2.048,3.162,3.162,0,0,1,2.72-3.224,2.783,2.783,0,0,1,1.7.413v.028a3.035,3.035,0,0,1,.368.276,2.9,2.9,0,0,1,1.1-.609V-74.39A1.549,1.549,0,0,0,439.842-76Zm1.842,2.694h.737a.388.388,0,0,1,.368.4v.807a.388.388,0,0,1-.368.4h-.737a.388.388,0,0,1-.368-.4V-72.9A.388.388,0,0,1,434.316-73.306Zm2.947,0H438a.388.388,0,0,1,.368.4v.807a.388.388,0,0,1-.368.4h-.737a.388.388,0,0,1-.368-.4V-72.9A.388.388,0,0,1,437.263-73.306Zm-2.947,3.231h.737a.388.388,0,0,1,.368.4v.807a.388.388,0,0,1-.368.4h-.737a.388.388,0,0,1-.368-.4v-.8a.389.389,0,0,1,.366-.408Zm4.053.807a1.558,1.558,0,0,0-1.536,1.582,1.568,1.568,0,0,0,1.474,1.647,1.557,1.557,0,0,0,1.536-1.581v-.039a1.549,1.549,0,0,0-1.475-1.61Zm3.684,0a1.558,1.558,0,0,0-1.536,1.582,1.568,1.568,0,0,0,1.474,1.647,1.557,1.557,0,0,0,1.536-1.581v-.039A1.549,1.549,0,0,0,442.053-69.268Zm-7.737,2.423h.737a.388.388,0,0,1,.368.4v.807a.388.388,0,0,1-.368.4h-.737a.388.388,0,0,1-.368-.4v-.807A.388.388,0,0,1,434.316-66.845Zm4.053,2.422c-1.61,0-2.947.734-2.947,1.79v.229a.388.388,0,0,0,.368.4h8.842a.388.388,0,0,0,.368-.4v-.229c0-1.056-1.337-1.79-2.947-1.79a4.331,4.331,0,0,0-1.842.385,4.336,4.336,0,0,0-1.843-.385Z" transform="translate(-431 76)" fill="#b1b9c7"/>
</svg>
