<svg id="code_postal" data-name="code postal" xmlns="http://www.w3.org/2000/svg" width="16" height="19" viewBox="0 0 16 19">
  <path id="icons8-region" d="M12,2A7.875,7.875,0,0,0,4,9.743c0,5.092,5.2,7.529,5.853,8.1a6.473,6.473,0,0,1,1.437,2.614.734.734,0,0,0,1.42,0,6.477,6.477,0,0,1,1.437-2.614c.652-.567,5.853-3,5.853-8.1A7.875,7.875,0,0,0,12,2ZM8.914,12.729a.687.687,0,0,1,0,1,.744.744,0,0,1-1.028,0,5.5,5.5,0,0,1,0-7.964.744.744,0,0,1,1.028,0,.687.687,0,0,1,0,1,4.129,4.129,0,0,0,0,5.973ZM12,11.151a1.409,1.409,0,1,1,1.455-1.408A1.431,1.431,0,0,1,12,11.151Zm4.114,2.574a.744.744,0,0,1-1.028,0,.687.687,0,0,1,0-1,4.129,4.129,0,0,0,0-5.973.687.687,0,0,1,0-1,.744.744,0,0,1,1.028,0,5.5,5.5,0,0,1,0,7.964Z" transform="translate(-4 -2)" fill="#b1b9c7"/>
</svg>
