<svg id="mail" xmlns="http://www.w3.org/2000/svg" width="18" height="14" viewBox="0 0 18 14">
  <path id="Path_7059" data-name="Path 7059" d="M444.2-72H429.8a1.831,1.831,0,0,0-1.8,1.861v.151l9,5.811h0l9-5.811v-.152A1.831,1.831,0,0,0,444.2-72Z" transform="translate(-428 72)" fill="#b1b9c7"/>
  <path id="Path_7060" data-name="Path 7060" d="M436.588-63.061,428-68.589v8.735A1.838,1.838,0,0,0,429.8-58h14.4a1.838,1.838,0,0,0,1.8-1.854v-8.735l-8.588,5.528A.763.763,0,0,1,436.588-63.061Z" transform="translate(-428 72)" fill="#b1b9c7"/>
</svg>
