<svg id="mes-disponibilites" xmlns="http://www.w3.org/2000/svg" width="26.596" height="25" viewBox="0 0 26.596 25">
  <path id="Path_7085" data-name="Path 7085" d="M39.333,43.4H19.659A2.667,2.667,0,0,1,17,40.738V22.659A2.667,2.667,0,0,1,19.659,20H39.333a2.667,2.667,0,0,1,2.659,2.659V40.738A2.667,2.667,0,0,1,39.333,43.4Z" transform="translate(-16.198 -19.198)" fill="#fff"/>
  <path id="Path_7086" data-name="Path 7086" d="M39.8,32.6h-25a.8.8,0,0,1,0-1.6h25a.8.8,0,0,1,0,1.6Zm-19.681-2.94a.795.795,0,0,1-.559-1.363.818.818,0,0,1,1.117,0,.771.771,0,0,1,.239.561.82.82,0,0,1-.8.8Zm7.181,0a.795.795,0,0,1-.559-1.363.818.818,0,0,1,1.117,0,.771.771,0,0,1,.239.561.82.82,0,0,1-.8.8Zm7.979,0a.795.795,0,0,1-.559-1.363.818.818,0,0,1,1.117,0,.771.771,0,0,1,.239.561.82.82,0,0,1-.8.8Z" transform="translate(-14 -25.115)" fill="#19277b"/>
  <path id="Path_7087" data-name="Path 7087" d="M37.138,42H17.457A3.451,3.451,0,0,1,14,38.543V20.457A3.451,3.451,0,0,1,17.457,17H37.138A3.451,3.451,0,0,1,40.6,20.457V38.543A3.451,3.451,0,0,1,37.138,42ZM17.457,18.6A1.85,1.85,0,0,0,15.6,20.457V38.543A1.85,1.85,0,0,0,17.457,40.4H37.138A1.85,1.85,0,0,0,39,38.543V20.457A1.85,1.85,0,0,0,37.138,18.6Z" transform="translate(-14 -17)" fill="#19277b"/>
  <path id="Path_7088" data-name="Path 7088" d="M34.168,52h5.31v5.345h-5.31ZM27,52h5.31v5.345H27Zm14.337,0h5.31v5.345h-5.31Zm-7.168,7.216h5.31v5.345h-5.31Zm-7.168,0h5.31v5.345H27Z" transform="translate(-23.525 -42.769)" fill="#d4dce7"/>
  <path id="Path_7089" data-name="Path 7089" d="M83.673,84.345h0A2.681,2.681,0,0,1,81,81.673h0A2.681,2.681,0,0,1,83.673,79h0a2.681,2.681,0,0,1,2.673,2.673h0A2.681,2.681,0,0,1,83.673,84.345Z" transform="translate(-63.224 -62.553)" fill="#1de0d6"/>
</svg>
