<svg id="message-envoyee" xmlns="http://www.w3.org/2000/svg" width="85" height="85" viewBox="0 0 85 85">
  <g id="icon">
    <circle id="Oval" cx="42.5" cy="42.5" r="42.5" fill="#00d9cd" opacity="0.1"/>
  </g>
  <g id="Group_839" data-name="Group 839" transform="translate(-241.627 -226.527)">
    <g id="icons8-check_file" transform="translate(240 222.3)" fill="#1de0d6">
      <path d="M 44.46744537353516 65.75389862060547 C 41.79880523681641 65.75389862060547 39.20931625366211 65.24028778076172 36.7708854675293 64.22734832763672 C 34.41499710083008 63.24868011474609 32.29910659790039 61.84755706787109 30.48200607299805 60.06290817260742 C 28.66364479064941 58.27701950073242 27.23574447631836 56.19673919677734 26.23796463012695 53.87982940673828 C 25.20417594909668 51.47932815551758 24.68000602722168 48.92975997924805 24.68000602722168 46.30194854736328 C 24.68000602722168 43.67413711547852 25.20417594909668 41.12458038330078 26.23796463012695 38.72407913208008 C 27.23574447631836 36.40716934204102 28.66364479064941 34.32688903808594 30.48200607299805 32.54100036621094 C 32.29910659790039 30.75633811950684 34.41499710083008 29.3552188873291 36.7708854675293 28.37655830383301 C 39.20931625366211 27.36360931396484 41.79880523681641 26.84999847412109 44.46744537353516 26.84999847412109 C 47.13607406616211 26.84999847412109 49.72556686401367 27.36360931396484 52.16399383544922 28.37655830383301 C 54.5198860168457 29.3552188873291 56.63577651977539 30.75633811950684 58.45288467407227 32.54100036621094 C 60.27123641967773 34.32688903808594 61.69914627075195 36.40716934204102 62.69692611694336 38.72407913208008 C 63.73071670532227 41.12458038330078 64.2548828125 43.67413711547852 64.2548828125 46.30194854736328 C 64.2548828125 48.92975997924805 63.73071670532227 51.47932815551758 62.69692611694336 53.87982940673828 C 61.69914627075195 56.19673919677734 60.27123641967773 58.27701950073242 58.45288467407227 60.06290817260742 C 56.63577651977539 61.84755706787109 54.5198860168457 63.24868011474609 52.16399383544922 64.22734832763672 C 49.72556686401367 65.24028778076172 47.13607406616211 65.75389862060547 44.46744537353516 65.75389862060547 Z" stroke="none"/>
      <path d="M 44.46744537353516 27.85000610351562 C 34.09140396118164 27.85000610351562 25.68000411987305 36.11120223999023 25.68000411987305 46.30195236206055 C 25.68000411987305 56.49270248413086 34.09140396118164 64.75390625 44.46744537353516 64.75390625 C 54.84346389770508 64.75390625 63.2548828125 56.49270248413086 63.2548828125 46.30195236206055 C 63.2548828125 36.11120223999023 54.84346389770508 27.85000610351562 44.46744537353516 27.85000610351562 M 44.46744537353516 25.85000610351562 C 47.26841354370117 25.85000610351562 49.98698425292969 26.38935089111328 52.54761505126953 27.45307159423828 C 55.022216796875 28.48104095458984 57.24478530883789 29.95283126831055 59.15358734130859 31.82755279541016 C 61.06489562988281 33.7047233581543 62.56605529785156 35.89197158813477 63.61537551879883 38.32854080200195 C 64.70327758789062 40.85469055175781 65.2548828125 43.53733062744141 65.2548828125 46.30195236206055 C 65.2548828125 49.06657409667969 64.70327758789062 51.74921417236328 63.61537551879883 54.27536392211914 C 62.56605529785156 56.71193313598633 61.06489562988281 58.8991813659668 59.15358734130859 60.77635192871094 C 57.24478530883789 62.65106964111328 55.022216796875 64.12286376953125 52.54761505126953 65.15083312988281 C 49.98698425292969 66.21455383300781 47.26841354370117 66.75390625 44.46744537353516 66.75390625 C 41.66646575927734 66.75390625 38.94790649414062 66.21455383300781 36.38726425170898 65.15083312988281 C 33.91266632080078 64.12286376953125 31.69010543823242 62.65106964111328 29.78129577636719 60.77635192871094 C 27.8699836730957 58.8991813659668 26.36882400512695 56.71193313598633 25.31950378417969 54.27536392211914 C 24.23161315917969 51.74921417236328 23.68000793457031 49.06657409667969 23.68000793457031 46.30195236206055 C 23.68000793457031 43.53733062744141 24.23161315917969 40.85469055175781 25.31950378417969 38.32854080200195 C 26.36882400512695 35.89197158813477 27.8699836730957 33.7047233581543 29.78129577636719 31.82755279541016 C 31.69010543823242 29.95283126831055 33.91266632080078 28.48104095458984 36.38726425170898 27.45307159423828 C 38.94790649414062 26.38935089111328 41.66646575927734 25.85000610351562 44.46744537353516 25.85000610351562 Z" stroke="none" fill="#fff"/>
    </g>
    <path id="icons8-check_file-2" data-name="icons8-check_file" d="M50.108,35.236a2.7,2.7,0,0,1,1.9.772,2.6,2.6,0,0,1,0,3.727L41.27,50.279a2.718,2.718,0,0,1-3.8,0l-5.368-5.272a2.6,2.6,0,0,1,0-3.727,2.716,2.716,0,0,1,3.8,0l3.47,3.408,8.838-8.68A2.7,2.7,0,0,1,50.108,35.236Z" transform="translate(242.412 225.458)" fill="#fff"/>
  </g>
</svg>
