<svg id="missions" xmlns="http://www.w3.org/2000/svg" width="54.692" height="54.692" viewBox="0 0 54.692 54.692">
  <path id="Path" d="M18.16,50.521a.535.535,0,0,1-.727.5,27.355,27.355,0,0,1,0-50.984.535.535,0,0,1,.727.5Z" transform="translate(0 1.563)" fill="#cfd1d9"/>
  <path id="Path-2" data-name="Path" d="M4.164,51.447A27.194,27.194,0,0,1,0,49.532V1.915A27.194,27.194,0,0,1,4.164,0V51.447Z" transform="translate(13.887 1.623)" fill="#1de0d6"/>
  <path id="Path-3" data-name="Path" d="M0,1.9A27.346,27.346,0,1,1,0,52.79Z" transform="translate(17.305)" fill="#f0f2ff"/>
  <path id="Shape" d="M0,33.114a5.341,5.341,0,1,1,5.341,5.341A5.342,5.342,0,0,1,0,33.114ZM0,19.228a5.341,5.341,0,1,1,5.341,5.341A5.341,5.341,0,0,1,0,19.228ZM0,5.341a5.341,5.341,0,1,1,5.341,5.34A5.341,5.341,0,0,1,0,5.341Z" transform="translate(44.01 6.409)" fill="#1de0d6"/>
  <path id="Shape-2" data-name="Shape" d="M2.368,36.879.159,33.285a1.068,1.068,0,1,1,1.82-1.119L3.1,33.986,5.424,28.43a1.068,1.068,0,1,1,1.97.824L4.264,36.732a1.068,1.068,0,0,1-.9.653.8.8,0,0,1-.083,0A1.068,1.068,0,0,1,2.368,36.879Zm0-13.887L.159,19.4a1.068,1.068,0,1,1,1.82-1.119L3.1,20.1l2.326-5.557a1.068,1.068,0,1,1,1.97.824L4.264,22.845a1.068,1.068,0,0,1-.9.653.8.8,0,0,1-.083,0A1.068,1.068,0,0,1,2.368,22.993Zm0-13.887L.159,5.512a1.068,1.068,0,1,1,1.82-1.119L3.1,6.212,5.424.655a1.068,1.068,0,1,1,1.97.826L4.264,8.959a1.068,1.068,0,0,1-.9.653l-.083,0A1.071,1.071,0,0,1,2.368,9.106Z" transform="translate(46.146 5.341)" fill="#fff"/>
  <path id="Shape-3" data-name="Shape" d="M.321,34.183c-.177,0-.321-.24-.321-.534V32.58c0-.294.143-.534.321-.534H12.5c.177,0,.321.24.321.534v1.069c0,.294-.143.534-.321.534Zm.214-4.274A.534.534,0,0,1,0,29.376V28.307a.534.534,0,0,1,.534-.534h20.3a.534.534,0,0,1,.534.534v1.069a.534.534,0,0,1-.534.533ZM.321,20.3C.143,20.3,0,20.056,0,19.762V18.694c0-.3.143-.534.321-.534H12.5c.177,0,.321.239.321.534v1.069c0,.294-.143.533-.321.533Zm.214-4.273A.534.534,0,0,1,0,15.488V14.421a.534.534,0,0,1,.534-.534h20.3a.534.534,0,0,1,.534.534v1.067a.534.534,0,0,1-.534.534ZM.321,6.409C.143,6.409,0,6.17,0,5.876V4.807c0-.3.143-.534.321-.534H12.5c.177,0,.321.239.321.534V5.876c0,.294-.143.533-.321.533ZM.534,2.136A.534.534,0,0,1,0,1.6V.534A.534.534,0,0,1,.534,0h20.3a.534.534,0,0,1,.534.534V1.6a.534.534,0,0,1-.534.534Z" transform="translate(20.296 8.546)" fill="#19277b"/>
</svg>
