<svg id="mobile" xmlns="http://www.w3.org/2000/svg" width="7" height="14" viewBox="0 0 7 14">
  <path id="icons8-cell_phone" d="M13.556-.014a.474.474,0,0,0-.431.507v.5H7.875a.943.943,0,0,0-.875,1V12.987a.943.943,0,0,0,.875,1h5.25a.943.943,0,0,0,.875-1V.493a.539.539,0,0,0-.128-.361A.411.411,0,0,0,13.556-.014ZM7.875,1.992h5.25v3H7.875Zm.875,5a.5.5,0,1,1-.437.5A.472.472,0,0,1,8.75,6.99Zm1.75,0a.5.5,0,1,1-.437.5A.472.472,0,0,1,10.5,6.99Zm1.75,0a.5.5,0,1,1-.437.5A.472.472,0,0,1,12.25,6.99Zm-3.5,2a.5.5,0,1,1-.437.5A.472.472,0,0,1,8.75,8.989Zm1.75,0a.5.5,0,1,1-.437.5A.472.472,0,0,1,10.5,8.989Zm1.75,0a.5.5,0,1,1-.437.5A.472.472,0,0,1,12.25,8.989Zm-3.5,2a.5.5,0,1,1-.437.5A.472.472,0,0,1,8.75,10.988Zm1.75,0a.5.5,0,1,1-.437.5A.472.472,0,0,1,10.5,10.988Zm1.75,0a.5.5,0,1,1-.437.5A.472.472,0,0,1,12.25,10.988Z" transform="translate(-7 0.014)" fill="#b1b9c7"/>
</svg>
