<svg id="mon-suivi" xmlns="http://www.w3.org/2000/svg" width="17.453" height="25" viewBox="0 0 17.453 25">
  <path id="Path_7106" data-name="Path 7106" d="M45.733,28.5V46.217A2.34,2.34,0,0,1,43.4,48.545H32.037A2.34,2.34,0,0,1,29.7,46.217V28.5" transform="translate(-29.002 -24.221)" fill="#fff"/>
  <path id="Path_7110" data-name="Path 7110" d="M58.63,13.5a1.63,1.63,0,1,0,1.63,1.63A1.63,1.63,0,0,0,58.63,13.5Z" transform="translate(-49.915 -12.802)" fill="#fff"/>
  <path id="Path_7111" data-name="Path 7111" d="M41.092,47.008H29.737A3.032,3.032,0,0,1,26.7,43.969V28.539A3.032,3.032,0,0,1,29.737,25.5H41.116a3.032,3.032,0,0,1,3.037,3.039V43.992A3.063,3.063,0,0,1,41.092,47.008ZM29.737,26.9A1.626,1.626,0,0,0,28.1,28.539V43.992a1.626,1.626,0,0,0,1.636,1.636H41.116a1.626,1.626,0,0,0,1.636-1.636V28.539A1.626,1.626,0,0,0,41.116,26.9Z" transform="translate(-26.7 -22.008)" fill="#19277b"/>
  <path id="Path_7112" data-name="Path 7112" d="M45.2,17.717a.7.7,0,1,1,0-1.4h7.735a.7.7,0,1,1,0,1.4Zm3.868-2.561a2.328,2.328,0,1,1,2.344-2.328A2.343,2.343,0,0,1,49.071,15.156Zm0-3.259a.931.931,0,1,0,.938.931A.937.937,0,0,0,49.071,11.9Z" transform="translate(-40.356 -10.5)" fill="#19277b"/>
  <path id="Path_7113" data-name="Path 7113" d="M46.549,58.5h-8a.542.542,0,1,0,0,1.084h8a.542.542,0,1,0,0-1.084m0-3.252h-8a.542.542,0,1,0,0,1.084h8a.542.542,0,1,0,0-1.084m0-3.252h-8a.542.542,0,1,0,0,1.084h8a.542.542,0,1,0,0-1.084" transform="translate(-33.809 -40.3)" fill="#1de0d6"/>
</svg>
