<svg id="nous-contacter" xmlns="http://www.w3.org/2000/svg" width="28" height="28" viewBox="0 0 28 28">
  <path id="Path_7065" data-name="Path 7065" d="M24.01,65.675H21.142a3.822,3.822,0,0,1-2.69-1.112h0a3.783,3.783,0,0,1-2.69,1.112H6.223A2.23,2.23,0,0,1,4,63.451V51.223A2.23,2.23,0,0,1,6.223,49H18.451a2.23,2.23,0,0,1,2.223,2.223V61.05a4.874,4.874,0,0,0,3.335,4.624Z" transform="translate(-3.333 -38.342)" fill="#fff"/>
  <path id="Path_7066" data-name="Path 7066" d="M28.8,16.511a4.877,4.877,0,0,1-1.461-3.489v-9.8A2.224,2.224,0,0,0,25.126,1H12.952a2.224,2.224,0,0,0-2.213,2.222V11H3.877A2.877,2.877,0,0,0,1,13.889V26.111A2.877,2.877,0,0,0,3.877,29h9.5a.667.667,0,0,0,0-1.333h-9.5a1.543,1.543,0,0,1-1.549-1.556V13.889a1.543,1.543,0,0,1,1.549-1.556H16.051A1.543,1.543,0,0,1,17.6,13.889v9.822a5.518,5.518,0,0,0,1.66,3.956h-.531a3.164,3.164,0,0,1-2.213-.911.659.659,0,1,0-.93.933A4.393,4.393,0,0,0,18.729,29h2.855a.688.688,0,0,0,.664-.556.65.65,0,0,0-.443-.733,4.211,4.211,0,0,1-2.855-4V17.667H22.47a3.8,3.8,0,0,0,2.678-1.111,3.759,3.759,0,0,0,2.678,1.111h.531A.675.675,0,0,0,28.8,16.511Z" transform="translate(-1 -1)" fill="#19277b"/>
  <path id="Path_7067" data-name="Path 7067" d="M72.115,32.334H65.667a.667.667,0,0,1,0-1.334h6.448a.667.667,0,0,1,0,1.334Zm0,3.335h-2a.667.667,0,0,1,0-1.334h2a.667.667,0,0,1,0,1.334Z" transform="translate(-50.859 -24.334)" fill="#fff"/>
  <path id="Path_7069" data-name="Path 7069" d="M30.115,77.334H23.667a.667.667,0,1,1,0-1.334h6.448a.667.667,0,0,1,0,1.334Zm0,3.335H23.667a.667.667,0,1,1,0-1.334h6.448a.667.667,0,0,1,0,1.334Z" transform="translate(-18.139 -59.335)" fill="#1de0d6"/>
</svg>
