<svg id="Offres" xmlns="http://www.w3.org/2000/svg" width="16" height="20" viewBox="0 0 16 20">
  <path id="Subtraction_2" data-name="Subtraction 2" d="M13.6,20H2.4a2.481,2.481,0,0,1-1.693-.654A2.127,2.127,0,0,1,0,17.778V4.445A2.127,2.127,0,0,1,.707,2.876,2.48,2.48,0,0,1,2.4,2.222H5.6A2.319,2.319,0,0,1,8,0a2.319,2.319,0,0,1,2.4,2.222h3.2A2.319,2.319,0,0,1,16,4.445V17.778A2.319,2.319,0,0,1,13.6,20ZM4.16,13.778a.891.891,0,1,0,0,1.777h7.68a.891.891,0,1,0,0-1.777Zm0-3.555A.891.891,0,1,0,4.16,12h4.8a.891.891,0,1,0,0-1.777Zm0-3.556a.928.928,0,0,0-.96.889.928.928,0,0,0,.96.889h7.68a.928.928,0,0,0,.96-.889.928.928,0,0,0-.96-.889ZM8,1.481a.764.764,0,0,0-.8.741.8.8,0,0,0,1.6,0A.764.764,0,0,0,8,1.481Z" transform="translate(0 0)" fill="#b1b9c7"/>
</svg>
