<svg id="pas_connecte" data-name="pas connecte" xmlns="http://www.w3.org/2000/svg" width="68.946" height="81.482" viewBox="0 0 68.946 81.482">
  <path id="icons8-customer" d="M36.473,0c-10.344,0-18.8,6.586-18.8,18.8,0,8.178,3.807,16.649,9.4,21.35v4.309a3.848,3.848,0,0,1-2.84,3.819C12.014,52.04,2,60.132,2,64.833v5.68c0,5.95,15.351,10.969,34.473,10.969s34.473-5.019,34.473-10.969v-5.68c0-4.383-9.7-12.793-22.231-16.551a4.146,4.146,0,0,1-2.84-3.819V40.153c5.595-4.7,9.4-13.172,9.4-21.35C55.277,6.586,46.818,0,36.473,0Z" transform="translate(-2)" fill="#b1b9c7" opacity="0.3"/>
</svg>
