<svg id="profil_recherche" data-name="profil recherche" xmlns="http://www.w3.org/2000/svg" width="54.692" height="54.692" viewBox="0 0 54.692 54.692">
  <path id="Path" d="M54.689,26.925A27.349,27.349,0,0,1,12.634,50.4a.258.258,0,0,1-.119-.217A4.019,4.019,0,0,0,8.5,46.164h-.88a.259.259,0,0,1-.188-.081,27.346,27.346,0,1,1,47.26-19.158Z" transform="translate(0 0)" fill="#cfd1d9"/>
  <path id="Path-2" data-name="Path" d="M30.444,16.931A1.068,1.068,0,0,1,31.512,18V30.657h-1.6V19.067a.534.534,0,0,0-.534-.534H16.557V31.191h-1.6V18.533H2.136a.534.534,0,0,0-.534.534v11.59H0V18a1.068,1.068,0,0,1,1.068-1.068H14.955V0h1.6V16.931Z" transform="translate(11.59 16.931)" fill="#19277b"/>
  <path id="Path-3" data-name="Path" d="M6.132,19.454.173,13.495a.59.59,0,0,1,0-.835L6.132,6.7a22.878,22.878,0,0,1,32.354,0l5.959,5.959a.591.591,0,0,1,0,.835l-5.959,5.959a22.852,22.852,0,0,1-32.354,0Z" transform="translate(5.037 3.969)" fill="#ededed"/>
  <path id="Path-4" data-name="Path" d="M16.525,25.924A22.781,22.781,0,0,1,2.641,19.338a9.017,9.017,0,0,1,0-12.753A22.779,22.779,0,0,1,16.525,0,22.781,22.781,0,0,1,30.41,6.585l5.959,5.959a.591.591,0,0,1,0,.835L30.41,19.338A22.784,22.784,0,0,1,16.525,25.924Z" transform="translate(13.113 4.084)" fill="#fff"/>
  <path id="Path-5" data-name="Path" d="M20.419,10.209A10.209,10.209,0,1,1,10.209,0,10.209,10.209,0,0,1,20.419,10.209Z" transform="translate(17.137 6.837)" fill="#344356"/>
  <path id="Path-6" data-name="Path" d="M17.866,10.209a10.161,10.161,0,0,1-1.828,5.829A10.209,10.209,0,0,1,1.828,1.828a10.209,10.209,0,0,1,16.038,8.381Z" transform="translate(19.689 6.837)" fill="#19277b"/>
  <path id="Path-7" data-name="Path" d="M3.063,1.531A1.531,1.531,0,1,1,1.531,0,1.531,1.531,0,0,1,3.063,1.531Z" transform="translate(29.388 11.941)" fill="#fff"/>
  <path id="Path-8" data-name="Path" d="M0,11.722,5.021,6.7a22.878,22.878,0,0,1,32.354,0L42.4,11.722A41.374,41.374,0,0,0,21.2,6.135,41.373,41.373,0,0,0,0,11.722Z" transform="translate(6.148 3.969)" fill="#dee2ff"/>
  <path id="Path-9" data-name="Path" d="M7.477,11.75H1.068A1.068,1.068,0,0,1,0,10.682V1.068A1.068,1.068,0,0,1,1.068,0H7.477A1.068,1.068,0,0,1,8.546,1.068v9.614A1.068,1.068,0,0,1,7.477,11.75Z" transform="translate(22.325 38.669)" fill="#dbdfff"/>
  <path id="Path-10" data-name="Path" d="M7.477,11.75H1.068A1.068,1.068,0,0,1,0,10.682V1.068A1.068,1.068,0,0,1,1.068,0H7.477A1.068,1.068,0,0,1,8.546,1.068v9.614A1.068,1.068,0,0,1,7.477,11.75Z" transform="translate(23.821 38.669)" fill="#fff"/>
  <path id="Shape" d="M0,7.477a1.068,1.068,0,1,1,1.068,1.07A1.068,1.068,0,0,1,0,7.477Zm0-3.2A1.068,1.068,0,1,1,1.068,5.341,1.068,1.068,0,0,1,0,4.272Zm0-3.2A1.068,1.068,0,1,1,1.068,2.136,1.067,1.067,0,0,1,0,1.068Z" transform="translate(23.5 40.271)" fill="#a3aeff"/>
  <path id="Shape-2" data-name="Shape" d="M.534,7.477a.534.534,0,1,1,0-1.068h3.2a.534.534,0,1,1,0,1.068Zm0-3.2a.534.534,0,1,1,0-1.068h3.2a.534.534,0,0,1,0,1.068Zm0-3.2A.534.534,0,0,1,.534,0h3.2a.534.534,0,0,1,0,1.068Z" transform="translate(26.705 40.805)" fill="#a3aeff"/>
  <path id="Path-11" data-name="Path" d="M8.546,1.068v9.614A1.068,1.068,0,0,1,7.477,11.75H5.293A27.471,27.471,0,0,1,0,7.35V1.068A1.068,1.068,0,0,1,1.068,0H7.477A1.068,1.068,0,0,1,8.546,1.068Z" transform="translate(7.371 38.669)" fill="#dbdfff"/>
  <path id="Path-12" data-name="Path" d="M8.546,1.068v9.614A1.068,1.068,0,0,1,7.477,11.75H3.8A27.446,27.446,0,0,1,0,8.832V1.068A1.068,1.068,0,0,1,1.068,0H7.477A1.068,1.068,0,0,1,8.546,1.068Z" transform="translate(8.866 38.669)" fill="#fff"/>
  <path id="Shape-3" data-name="Shape" d="M.1,7.026A1.068,1.068,0,1,1,1.65,8.373Q.851,7.728.1,7.026ZM0,4.272A1.068,1.068,0,1,1,1.068,5.341,1.068,1.068,0,0,1,0,4.272Zm0-3.2A1.068,1.068,0,1,1,1.068,2.136,1.067,1.067,0,0,1,0,1.068Z" transform="translate(8.546 40.271)" fill="#a3aeff"/>
  <path id="Shape-4" data-name="Shape" d="M.534,7.477a.534.534,0,1,1,0-1.068h3.2a.534.534,0,1,1,0,1.068Zm0-3.2a.534.534,0,1,1,0-1.068h3.2a.534.534,0,0,1,0,1.068Zm0-3.2A.534.534,0,0,1,.534,0h3.2a.534.534,0,0,1,0,1.068Z" transform="translate(11.75 40.805)" fill="#a3aeff"/>
  <path id="Path-13" data-name="Path" d="M7.477,11.75H1.068A1.068,1.068,0,0,1,0,10.682V1.068A1.068,1.068,0,0,1,1.068,0H7.477A1.068,1.068,0,0,1,8.546,1.068v9.614A1.068,1.068,0,0,1,7.477,11.75Z" transform="translate(37.28 38.669)" fill="#dbdfff"/>
  <path id="Path-14" data-name="Path" d="M7.477,11.75H1.068A1.068,1.068,0,0,1,0,10.682V1.068A1.068,1.068,0,0,1,1.068,0H7.477A1.068,1.068,0,0,1,8.546,1.068v9.614A1.068,1.068,0,0,1,7.477,11.75Z" transform="translate(38.776 38.669)" fill="#fff"/>
  <path id="Shape-5" data-name="Shape" d="M0,7.477a1.068,1.068,0,1,1,1.068,1.07A1.068,1.068,0,0,1,0,7.477Zm0-3.2A1.068,1.068,0,1,1,1.068,5.341,1.068,1.068,0,0,1,0,4.272Zm0-3.2A1.068,1.068,0,1,1,1.068,2.136,1.067,1.067,0,0,1,0,1.068Z" transform="translate(38.455 40.271)" fill="#a3aeff"/>
  <path id="Shape-6" data-name="Shape" d="M3.2,6.943a.534.534,0,1,1,.534.534A.535.535,0,0,1,3.2,6.943Zm-1.6,0a.534.534,0,1,1,.534.534A.535.535,0,0,1,1.6,6.943Zm-1.6,0a.534.534,0,1,1,.534.534A.535.535,0,0,1,0,6.943Zm.534-2.67a.534.534,0,1,1,0-1.068h3.2a.534.534,0,0,1,0,1.068Zm0-3.2A.534.534,0,0,1,.534,0h3.2a.534.534,0,0,1,0,1.068Z" transform="translate(41.66 40.805)" fill="#a3aeff"/>
</svg>
