<svg id="supprimer" xmlns="http://www.w3.org/2000/svg" width="25" height="30" viewBox="0 0 25 30">
  <path id="icons8-full_trash" d="M12.085,0a1.138,1.138,0,0,0-.675.324L6.048,5.769H3.136A1.147,1.147,0,0,0,2,6.922V9.229a1.147,1.147,0,0,0,1.136,1.153H3.42L6.013,26.206v.072a5.192,5.192,0,0,0,1.172,2.487,3.675,3.675,0,0,0,2.7,1.226h9.233a3.683,3.683,0,0,0,2.7-1.189,5.068,5.068,0,0,0,1.172-2.559v-.036l2.628-15.824h.249A1.147,1.147,0,0,0,27,9.229V6.922a1.147,1.147,0,0,0-1.136-1.153H24.088l-3.2-4.037a.92.92,0,0,0-.817-.36.957.957,0,0,0-.391.144L16.418,3.75,13.044.326A1.136,1.136,0,0,0,12.085,0Zm.142,2.811,2.912,2.956H9.315ZM20,3.57l1.74,2.2H18.406l-.675-.685ZM5.693,10.382h.781l1.349,1.37L6.19,13.374Zm2.379,0H9.138l-.533.541Zm2.628,0h1.918l1.03,1.045-2.273,2.307L9.386,11.716Zm3.551,0h.391l-.178.216Zm2.024,0h1.918l1.314,1.334-1.989,2.018-2.273-2.343Zm3.48,0h1.065l-.533.541Zm2.663,0h.923l-.5,3.1-1.74-1.766Zm-7.99,1.838,2.308,2.307-2.308,2.307-2.273-2.307Zm-5.824.324,1.953,1.982L8.286,16.834,6.439,14.96,6.4,14.78Zm11.683,0,2.273,2.307L20.608,16.87l-2.273-2.343Zm-8.913,2.811,2.273,2.307L11.375,19.97,9.1,17.663Zm6.143,0,2.308,2.307L17.554,19.97l-2.308-2.307ZM22.277,16.8l-.249,1.514-.639-.649Zm-15.518.108.746.757-.533.541Zm1.527,1.55,2.273,2.307L8.286,23.106l-.639-.649-.462-2.884Zm6.143,0L16.737,20.8l-2.273,2.307-2.308-2.343Zm6.179,0,1.207,1.226-.462,2.631-.746.757-2.273-2.307Zm-9.233,3.136L13.648,23.9l-2.273,2.343L9.1,23.935Zm6.143,0L19.791,23.9l-2.273,2.307L15.246,23.9Zm-9.2,3.136,2.273,2.307-.639.649H9.884a1.2,1.2,0,0,1-.994-.469,3.08,3.08,0,0,1-.675-1.37v-.036l-.142-.865Zm6.143,0,2.273,2.307-.639.649H12.8l-.639-.649Zm6.143,0,.32.324-.142.757a.1.1,0,0,1,0,.036,2.9,2.9,0,0,1-.639,1.37,1.275,1.275,0,0,1-1.03.469h-.142l-.639-.649Z" transform="translate(-2 0.009)" fill="#b1b9c7"/>
</svg>
