<svg id="telecharger" xmlns="http://www.w3.org/2000/svg" width="17" height="21" viewBox="0 0 17 21">
  <path id="Exclusion_1" data-name="Exclusion 1" d="M8.5,21a.791.791,0,0,1-.772-.807V17.348H5a5.006,5.006,0,0,1-5-5V5A5.006,5.006,0,0,1,5,0h7a5.006,5.006,0,0,1,5,5v7.348a5.006,5.006,0,0,1-5,5H9.273V6.8l1.772,1.852a.748.748,0,0,0,1.093,0,.836.836,0,0,0,0-1.142L9.046,4.275a.749.749,0,0,0-1.093,0L4.863,7.505a.834.834,0,0,0,0,1.142.748.748,0,0,0,1.093,0L7.727,6.8V16.961h0v.386H9.273v2.845A.792.792,0,0,1,8.5,21Z" transform="translate(0 0.001)" fill="#b1b9c7"/>
</svg>
