<svg id="téléphone" xmlns="http://www.w3.org/2000/svg" width="11" height="14" viewBox="0 0 11 14">
  <path id="icons8-office_phone" d="M4.492.986A.535.535,0,0,0,4,1.554V13.867a1.064,1.064,0,0,0,1,1.119H7a1.064,1.064,0,0,0,1-1.119V3.792A1.064,1.064,0,0,0,7,2.673H5V1.554a.6.6,0,0,0-.147-.4A.474.474,0,0,0,4.492.986ZM9,3.233V4.912h4.5V6.031H9V7.151h.5V8.27H9V9.389h.5v1.119H9v1.119h.5v1.119H9v1.679h5a1.064,1.064,0,0,0,1-1.119V4.352a1.064,1.064,0,0,0-1-1.119Zm1.5,3.918h1V8.27h-1Zm2,0h1V8.27h-1Zm-2,2.239h1v1.119h-1Zm2,0h1v1.119h-1Zm-2,2.239h1v1.119h-1Zm2,0h1v1.119h-1Z" transform="translate(-4 -0.986)" fill="#b1b9c7"/>
</svg>
