<svg id="world" xmlns="http://www.w3.org/2000/svg" width="12" height="12" viewBox="0 0 12 12">
  <path id="icons8-geography" d="M8,2C7.234,2,6.407,3.177,5.952,5h4.1C9.593,3.177,8.766,2,8,2Zm-2.36.485A6.033,6.033,0,0,0,2.812,5H4.707A8.588,8.588,0,0,1,5.64,2.485Zm4.72,0A8.6,8.6,0,0,1,11.293,5h1.895A6.033,6.033,0,0,0,10.36,2.485ZM2.277,6.2a6,6,0,0,0,0,3.6H4.509a14.919,14.919,0,0,1,0-3.6Zm3.444,0a13.482,13.482,0,0,0,0,3.6h4.559A13.352,13.352,0,0,0,10.4,8a13.255,13.255,0,0,0-.121-1.8Zm5.77,0A15.151,15.151,0,0,1,11.6,8a15.151,15.151,0,0,1-.109,1.8h2.232a6,6,0,0,0,0-3.6ZM2.812,11A6.033,6.033,0,0,0,5.64,13.515,8.6,8.6,0,0,1,4.707,11Zm3.139,0C6.407,12.823,7.233,14,8,14s1.593-1.177,2.048-3Zm5.341,0a8.588,8.588,0,0,1-.933,2.515A6.033,6.033,0,0,0,13.188,11Z" transform="translate(-2 -2)" fill="#b1b9c7" opacity="0.5"/>
</svg>
